<?xml version="1.0" standalone="no"?>
<svg xmlns="http://www.w3.org/2000/svg" xmlns:xlink="http://www.w3.org/1999/xlink" width="757pt" height="1145pt" viewBox="0.00 0.00 756.90 1145.00">
<g id="graph0" class="graph" transform="translate(4,1141) scale(1)" data-name="determinant_flow">

<polygon fill="white" stroke="none" points="-4,4 -4,-1141 752.9,-1141 752.9,4 -4,4" style=""/>
<!-- start -->
<g id="node1" class="node" pointer-events="visible" data-name="start">

<polygon fill="none" stroke="black" points="183.24,-1137 34.16,-1137 34.16,-1101 183.24,-1101 183.24,-1137" style=""/>
<text text-anchor="middle" x="108.7" y="-1114.8" font-family="Helvetica,sans-Serif" font-size="14.00" style="">setDeterminantMatrix</text>
</g>
<!-- ask -->
<g id="node2" class="node" pointer-events="visible" data-name="ask">

<polygon fill="none" stroke="black" points="197.54,-1064 19.87,-1064 19.87,-1028 197.54,-1028 197.54,-1064" style=""/>
<text text-anchor="middle" x="108.7" y="-1041.8" font-family="Helvetica,sans-Serif" font-size="14.00" style="">readMatrixIdFromConsole</text>
</g>
<!-- start&#45;&gt;ask -->
<g id="edge1" class="edge" data-name="start-&gt;ask">

<path fill="none" stroke="black" d="M108.7,-1100.81C108.7,-1093.23 108.7,-1084.1 108.7,-1075.54" style=""/>
<polygon fill="black" stroke="black" points="112.2,-1075.54 108.7,-1065.54 105.2,-1075.54 112.2,-1075.54" style=""/>
</g>
<!-- invalid -->
<g id="node3" class="node" pointer-events="visible" data-name="invalid">

<polygon fill="none" stroke="black" points="151.61,-975.2 -0.2,-975.2 -0.2,-939.2 151.61,-939.2 151.61,-975.2" style=""/>
<text text-anchor="middle" x="75.7" y="-953" font-family="Helvetica,sans-Serif" font-size="14.00" style="">generalStrCharInvalid</text>
</g>
<!-- ask&#45;&gt;invalid -->
<g id="edge3" class="edge" data-name="ask-&gt;invalid">

<path fill="none" stroke="black" d="M102.18,-1027.85C97.65,-1015.92 91.5,-999.75 86.27,-986" style=""/>
<polygon fill="black" stroke="black" points="89.69,-985.13 82.86,-977.03 83.14,-987.62 89.69,-985.13" style=""/>
<text text-anchor="middle" x="115.14" y="-997.4" font-family="Times,serif" font-size="14.00" style="">invalid</text>
</g>
<!-- print_instr -->
<g id="node4" class="node" pointer-events="visible" data-name="print_instr">

<polygon fill="none" stroke="black" points="415.9,-975.2 169.5,-975.2 169.5,-939.2 415.9,-939.2 415.9,-975.2" style=""/>
<text text-anchor="middle" x="292.7" y="-953" font-family="Helvetica,sans-Serif" font-size="14.00" style="">strDeterminanteBareiss -&gt; printString</text>
</g>
<!-- ask&#45;&gt;print_instr -->
<g id="edge2" class="edge" data-name="ask-&gt;print_instr">

<path fill="none" stroke="black" d="M145.5,-1027.64C174.23,-1014.09 214.38,-995.15 245.49,-980.47" style=""/>
<polygon fill="black" stroke="black" points="246.74,-983.75 254.29,-976.32 243.75,-977.42 246.74,-983.75" style=""/>
<text text-anchor="middle" x="224.7" y="-997.4" font-family="Times,serif" font-size="14.00" style="">ok</text>
</g>
<!-- invalid&#45;&gt;ask -->
<g id="edge4" class="edge" data-name="invalid-&gt;ask">

<path fill="none" stroke="black" d="M79.27,-975.32C81.66,-985.57 85.2,-998.76 89.7,-1010 90.7,-1012.49 91.83,-1015.03 93.03,-1017.55" style=""/>
<polygon fill="black" stroke="black" points="89.82,-1018.96 97.52,-1026.24 96.04,-1015.75 89.82,-1018.96" style=""/>
</g>
<!-- call_noask -->
<g id="node5" class="node" pointer-events="visible" data-name="call_noask">

<polygon fill="none" stroke="black" points="387.98,-902.2 197.43,-902.2 197.43,-866.2 387.98,-866.2 387.98,-902.2" style=""/>
<text text-anchor="middle" x="292.7" y="-880" font-family="Helvetica,sans-Serif" font-size="14.00" style="">setDeterminantMatrixNoAsk</text>
</g>
<!-- print_instr&#45;&gt;call_noask -->
<g id="edge5" class="edge" data-name="print_instr-&gt;call_noask">

<path fill="none" stroke="black" d="M292.7,-939.01C292.7,-931.43 292.7,-922.3 292.7,-913.74" style=""/>
<polygon fill="black" stroke="black" points="296.2,-913.74 292.7,-903.74 289.2,-913.74 296.2,-913.74" style=""/>
</g>
<!-- gauss -->
<g id="node6" class="node" pointer-events="visible" data-name="gauss">

<polygon fill="none" stroke="black" points="370.19,-829.2 215.22,-829.2 215.22,-793.2 370.19,-793.2 370.19,-829.2" style=""/>
<text text-anchor="middle" x="292.7" y="-807" font-family="Helvetica,sans-Serif" font-size="14.00" style="">setGaussMatrixNoAsk</text>
</g>
<!-- call_noask&#45;&gt;gauss -->
<g id="edge6" class="edge" data-name="call_noask-&gt;gauss">

<path fill="none" stroke="black" d="M292.7,-866.01C292.7,-858.43 292.7,-849.3 292.7,-840.74" style=""/>
<polygon fill="black" stroke="black" points="296.2,-840.74 292.7,-830.74 289.2,-840.74 296.2,-840.74" style=""/>
</g>
<!-- gauss_copy_i -->
<g id="node7" class="node" pointer-events="visible" data-name="gauss_copy_i">

<polygon fill="none" stroke="black" points="376.72,-756.2 208.69,-756.2 208.69,-720.2 376.72,-720.2 376.72,-756.2" style=""/>
<text text-anchor="middle" x="292.7" y="-734" font-family="Helvetica,sans-Serif" font-size="14.00" style="">gaussCopyRowsLoop (i)</text>
</g>
<!-- gauss&#45;&gt;gauss_copy_i -->
<g id="edge7" class="edge" data-name="gauss-&gt;gauss_copy_i">

<path fill="none" stroke="black" d="M292.7,-793.01C292.7,-785.43 292.7,-776.3 292.7,-767.74" style=""/>
<polygon fill="black" stroke="black" points="296.2,-767.74 292.7,-757.74 289.2,-767.74 296.2,-767.74" style=""/>
</g>
<!-- gauss_copy_j -->
<g id="node8" class="node" pointer-events="visible" data-name="gauss_copy_j">

<polygon fill="none" stroke="black" points="308.22,-667.4 147.19,-667.4 147.19,-631.4 308.22,-631.4 308.22,-667.4" style=""/>
<text text-anchor="middle" x="227.7" y="-645.2" font-family="Helvetica,sans-Serif" font-size="14.00" style="">gaussCopyColsLoop (j)</text>
</g>
<!-- gauss_copy_i&#45;&gt;gauss_copy_j -->
<g id="edge8" class="edge" data-name="gauss_copy_i-&gt;gauss_copy_j">

<path fill="none" stroke="black" d="M291.11,-720.06C289.42,-709.3 285.92,-695.58 278.7,-685.4 275.98,-681.56 272.69,-678 269.11,-674.75" style=""/>
<polygon fill="black" stroke="black" points="271.53,-672.2 261.54,-668.67 267.14,-677.66 271.53,-672.2" style=""/>
</g>
<!-- gauss_k -->
<g id="node9" class="node" pointer-events="visible" data-name="gauss_k">

<polygon fill="none" stroke="black" points="440.76,-667.4 326.65,-667.4 326.65,-631.4 440.76,-631.4 440.76,-667.4" style=""/>
<text text-anchor="middle" x="383.7" y="-645.2" font-family="Helvetica,sans-Serif" font-size="14.00" style="">gaussKLoop (k)</text>
</g>
<!-- gauss_copy_i&#45;&gt;gauss_k -->
<g id="edge10" class="edge" data-name="gauss_copy_i-&gt;gauss_k">

<path fill="none" stroke="black" d="M310.68,-720.05C324.06,-707.29 342.51,-689.69 357.52,-675.37" style=""/>
<polygon fill="black" stroke="black" points="359.53,-678.29 364.36,-668.86 354.7,-673.22 359.53,-678.29" style=""/>
<text text-anchor="middle" x="358.17" y="-689.6" font-family="Times,serif" font-size="14.00" style="">fin i</text>
</g>
<!-- gauss_copy_j&#45;&gt;gauss_copy_i -->
<g id="edge9" class="edge" data-name="gauss_copy_j-&gt;gauss_copy_i">

<path fill="none" stroke="black" d="M222.21,-667.46C219.82,-678.18 218.81,-691.89 225.08,-702.2 227.55,-706.27 230.67,-709.88 234.2,-713.09" style=""/>
<polygon fill="black" stroke="black" points="231.79,-715.66 241.86,-718.95 236.04,-710.09 231.79,-715.66" style=""/>
<text text-anchor="middle" x="250.51" y="-689.6" font-family="Times,serif" font-size="14.00" style="">fin j, i++</text>
</g>
<!-- gauss_find_pivot -->
<g id="node10" class="node" pointer-events="visible" data-name="gauss_find_pivot">

<polygon fill="none" stroke="black" points="477.95,-578.6 289.46,-578.6 289.46,-542.6 477.95,-542.6 477.95,-578.6" style=""/>
<text text-anchor="middle" x="383.7" y="-556.4" font-family="Helvetica,sans-Serif" font-size="14.00" style="">gaussFindPivotRowLoop (r)</text>
</g>
<!-- gauss_k&#45;&gt;gauss_find_pivot -->
<g id="edge11" class="edge" data-name="gauss_k-&gt;gauss_find_pivot">

<path fill="none" stroke="black" d="M383.7,-631.25C383.7,-619.56 383.7,-603.79 383.7,-590.22" style=""/>
<polygon fill="black" stroke="black" points="387.2,-590.52 383.7,-580.52 380.2,-590.52 387.2,-590.52" style=""/>
</g>
<!-- no_result -->
<g id="node14" class="node" pointer-events="visible" data-name="no_result">

<polygon fill="none" stroke="black" points="271.04,-578.6 156.36,-578.6 156.36,-542.6 271.04,-542.6 271.04,-578.6" style=""/>
<text text-anchor="middle" x="213.7" y="-556.4" font-family="Helvetica,sans-Serif" font-size="14.00" style="">determinantEnd</text>
</g>
<!-- gauss_k&#45;&gt;no_result -->
<g id="edge18" class="edge" data-name="gauss_k-&gt;no_result">

<path fill="none" stroke="black" d="M349.71,-631.04C323.39,-617.6 286.71,-598.88 258.08,-584.26" style=""/>
<polygon fill="black" stroke="black" points="259.77,-581.19 249.28,-579.76 256.59,-587.43 259.77,-581.19" style=""/>
<text text-anchor="middle" x="333.1" y="-600.8" font-family="Times,serif" font-size="14.00" style="">x0==0</text>
</g>
<!-- load_n -->
<g id="node15" class="node" pointer-events="visible" data-name="load_n">

<polygon fill="none" stroke="black" points="741.41,-578.6 584,-578.6 584,-542.6 741.41,-542.6 741.41,-578.6" style=""/>
<text text-anchor="middle" x="662.7" y="-556.4" font-family="Helvetica,sans-Serif" font-size="14.00" style="">matrixResultRows -&gt; n</text>
</g>
<!-- gauss_k&#45;&gt;load_n -->
<g id="edge19" class="edge" data-name="gauss_k-&gt;load_n">

<path fill="none" stroke="black" d="M440.93,-636.26C467.53,-630.17 499.46,-622.21 527.7,-613.4 555.47,-604.74 585.75,-593.31 610.59,-583.39" style=""/>
<polygon fill="black" stroke="black" points="611.86,-586.65 619.83,-579.66 609.24,-580.16 611.86,-586.65" style=""/>
<text text-anchor="middle" x="580.7" y="-600.8" font-family="Times,serif" font-size="14.00" style="">ok</text>
</g>
<!-- gauss_swap_j -->
<g id="node11" class="node" pointer-events="visible" data-name="gauss_swap_j">

<polygon fill="none" stroke="black" points="267.56,-489.8 103.85,-489.8 103.85,-453.8 267.56,-453.8 267.56,-489.8" style=""/>
<text text-anchor="middle" x="185.7" y="-467.6" font-family="Helvetica,sans-Serif" font-size="14.00" style="">gaussSwapColsLoop (j)</text>
</g>
<!-- gauss_find_pivot&#45;&gt;gauss_swap_j -->
<g id="edge12" class="edge" data-name="gauss_find_pivot-&gt;gauss_swap_j">

<path fill="none" stroke="black" d="M344.11,-542.24C313.05,-528.63 269.61,-509.58 236.08,-494.88" style=""/>
<polygon fill="black" stroke="black" points="237.52,-491.69 226.95,-490.88 234.71,-498.1 237.52,-491.69" style=""/>
<text text-anchor="middle" x="333.23" y="-512" font-family="Times,serif" font-size="14.00" style="">pivot swap</text>
</g>
<!-- gauss_i -->
<g id="node12" class="node" pointer-events="visible" data-name="gauss_i">

<polygon fill="none" stroke="black" points="534.92,-489.8 430.49,-489.8 430.49,-453.8 534.92,-453.8 534.92,-489.8" style=""/>
<text text-anchor="middle" x="482.7" y="-467.6" font-family="Helvetica,sans-Serif" font-size="14.00" style="">gaussILoop (i)</text>
</g>
<!-- gauss_find_pivot&#45;&gt;gauss_i -->
<g id="edge13" class="edge" data-name="gauss_find_pivot-&gt;gauss_i">

<path fill="none" stroke="black" d="M403.26,-542.45C417.81,-529.69 437.89,-512.09 454.22,-497.77" style=""/>
<polygon fill="black" stroke="black" points="456.5,-500.43 461.71,-491.21 451.88,-495.17 456.5,-500.43" style=""/>
<text text-anchor="middle" x="465.84" y="-512" font-family="Times,serif" font-size="14.00" style="">pivot ok</text>
</g>
<!-- gauss_swap_j&#45;&gt;gauss_k -->
<g id="edge14" class="edge" data-name="gauss_swap_j-&gt;gauss_k">

<path fill="none" stroke="black" d="M154.14,-490.27C120.49,-511.14 75.17,-547.18 99.88,-578.6 159.3,-654.14 216.87,-610.58 315.53,-631.1" style=""/>
<polygon fill="black" stroke="black" points="314.47,-634.45 325,-633.27 316.04,-627.63 314.47,-634.45" style=""/>
<text text-anchor="middle" x="124.62" y="-556.4" font-family="Times,serif" font-size="14.00" style="">fin swap</text>
</g>
<!-- gauss_i&#45;&gt;gauss_k -->
<g id="edge17" class="edge" data-name="gauss_i-&gt;gauss_k">

<path fill="none" stroke="black" d="M488.76,-489.98C495.44,-512.18 503.23,-551.22 486.7,-578.6 474.63,-598.6 454.38,-614.16 435.01,-625.46" style=""/>
<polygon fill="black" stroke="black" points="433.4,-622.35 426.33,-630.25 436.78,-628.48 433.4,-622.35" style=""/>
<text text-anchor="middle" x="523.07" y="-556.4" font-family="Times,serif" font-size="14.00" style="">fin i, k++</text>
</g>
<!-- gauss_j -->
<g id="node13" class="node" pointer-events="visible" data-name="gauss_j">

<polygon fill="none" stroke="black" points="536.53,-401 428.88,-401 428.88,-365 536.53,-365 536.53,-401" style=""/>
<text text-anchor="middle" x="482.7" y="-378.8" font-family="Helvetica,sans-Serif" font-size="14.00" style="">gaussJLoop (j)</text>
</g>
<!-- gauss_i&#45;&gt;gauss_j -->
<g id="edge15" class="edge" data-name="gauss_i-&gt;gauss_j">

<path fill="none" stroke="black" d="M480.91,-453.37C480.42,-447.77 479.95,-441.53 479.7,-435.8 479.38,-428.34 479.38,-426.46 479.7,-419 479.79,-416.94 479.91,-414.82 480.05,-412.68" style=""/>
<polygon fill="black" stroke="black" points="483.52,-413.18 480.8,-402.94 476.54,-412.64 483.52,-413.18" style=""/>
</g>
<!-- gauss_j&#45;&gt;gauss_i -->
<g id="edge16" class="edge" data-name="gauss_j-&gt;gauss_i">

<path fill="none" stroke="black" d="M482.7,-401.41C482.7,-413.16 482.7,-428.94 482.7,-442.48" style=""/>
<polygon fill="black" stroke="black" points="479.2,-442.14 482.7,-452.14 486.2,-442.14 479.2,-442.14" style=""/>
<text text-anchor="middle" x="507.51" y="-423.2" font-family="Times,serif" font-size="14.00" style="">fin j, i++</text>
</g>
<!-- load_last -->
<g id="node16" class="node" pointer-events="visible" data-name="load_last">

<polygon fill="none" stroke="black" points="703.84,-489.8 621.57,-489.8 621.57,-453.8 703.84,-453.8 703.84,-489.8" style=""/>
<text text-anchor="middle" x="662.7" y="-467.6" font-family="Helvetica,sans-Serif" font-size="14.00" style="">C[n-1][n-1]</text>
</g>
<!-- load_n&#45;&gt;load_last -->
<g id="edge20" class="edge" data-name="load_n-&gt;load_last">

<path fill="none" stroke="black" d="M662.7,-542.45C662.7,-530.76 662.7,-514.99 662.7,-501.42" style=""/>
<polygon fill="black" stroke="black" points="666.2,-501.72 662.7,-491.72 659.2,-501.72 666.2,-501.72" style=""/>
</g>
<!-- apply_sign -->
<g id="node17" class="node" pointer-events="visible" data-name="apply_sign">

<polygon fill="none" stroke="black" points="728.08,-401 597.32,-401 597.32,-365 728.08,-365 728.08,-401" style=""/>
<text text-anchor="middle" x="662.7" y="-378.8" font-family="Helvetica,sans-Serif" font-size="14.00" style="">* signo swaps (x1)</text>
</g>
<!-- load_last&#45;&gt;apply_sign -->
<g id="edge21" class="edge" data-name="load_last-&gt;apply_sign">

<path fill="none" stroke="black" d="M662.7,-453.65C662.7,-441.96 662.7,-426.19 662.7,-412.62" style=""/>
<polygon fill="black" stroke="black" points="666.2,-412.92 662.7,-402.92 659.2,-412.92 666.2,-412.92" style=""/>
</g>
<!-- free_prev -->
<g id="node18" class="node" pointer-events="visible" data-name="free_prev">

<polygon fill="none" stroke="black" points="749.09,-328 576.32,-328 576.32,-292 749.09,-292 749.09,-328" style=""/>
<text text-anchor="middle" x="662.7" y="-305.8" font-family="Helvetica,sans-Serif" font-size="14.00" style="">freePreviousMatrixResult</text>
</g>
<!-- apply_sign&#45;&gt;free_prev -->
<g id="edge22" class="edge" data-name="apply_sign-&gt;free_prev">

<path fill="none" stroke="black" d="M662.7,-364.81C662.7,-357.23 662.7,-348.1 662.7,-339.54" style=""/>
<polygon fill="black" stroke="black" points="666.2,-339.54 662.7,-329.54 659.2,-339.54 666.2,-339.54" style=""/>
</g>
<!-- alloc -->
<g id="node19" class="node" pointer-events="visible" data-name="alloc">

<polygon fill="none" stroke="black" points="747.74,-255 577.67,-255 577.67,-219 747.74,-219 747.74,-255" style=""/>
<text text-anchor="middle" x="662.7" y="-232.8" font-family="Helvetica,sans-Serif" font-size="14.00" style="">mallocResultMatrix (1x1)</text>
</g>
<!-- free_prev&#45;&gt;alloc -->
<g id="edge23" class="edge" data-name="free_prev-&gt;alloc">

<path fill="none" stroke="black" d="M662.7,-291.81C662.7,-284.23 662.7,-275.1 662.7,-266.54" style=""/>
<polygon fill="black" stroke="black" points="666.2,-266.54 662.7,-256.54 659.2,-266.54 666.2,-266.54" style=""/>
</g>
<!-- store -->
<g id="node20" class="node" pointer-events="visible" data-name="store">

<polygon fill="none" stroke="black" points="725.15,-182 600.26,-182 600.26,-146 725.15,-146 725.15,-182" style=""/>
<text text-anchor="middle" x="662.7" y="-159.8" font-family="Helvetica,sans-Serif" font-size="14.00" style="">store determinant</text>
</g>
<!-- alloc&#45;&gt;store -->
<g id="edge24" class="edge" data-name="alloc-&gt;store">

<path fill="none" stroke="black" d="M662.7,-218.81C662.7,-211.23 662.7,-202.1 662.7,-193.54" style=""/>
<polygon fill="black" stroke="black" points="666.2,-193.54 662.7,-183.54 659.2,-193.54 666.2,-193.54" style=""/>
</g>
<!-- print -->
<g id="node21" class="node" pointer-events="visible" data-name="print">

<polygon fill="none" stroke="black" points="717.58,-109 607.82,-109 607.82,-73 717.58,-73 717.58,-109" style=""/>
<text text-anchor="middle" x="662.7" y="-86.8" font-family="Helvetica,sans-Serif" font-size="14.00" style="">printLastResult</text>
</g>
<!-- store&#45;&gt;print -->
<g id="edge25" class="edge" data-name="store-&gt;print">

<path fill="none" stroke="black" d="M662.7,-145.81C662.7,-138.23 662.7,-129.1 662.7,-120.54" style=""/>
<polygon fill="black" stroke="black" points="666.2,-120.54 662.7,-110.54 659.2,-120.54 666.2,-120.54" style=""/>
</g>
<!-- end -->
<g id="node22" class="node" pointer-events="visible" data-name="end">

<polygon fill="none" stroke="black" points="720.04,-36 605.36,-36 605.36,0 720.04,0 720.04,-36" style=""/>
<text text-anchor="middle" x="662.7" y="-13.8" font-family="Helvetica,sans-Serif" font-size="14.00" style="">determinantEnd</text>
</g>
<!-- print&#45;&gt;end -->
<g id="edge26" class="edge" data-name="print-&gt;end">

<path fill="none" stroke="black" d="M662.7,-72.81C662.7,-65.23 662.7,-56.1 662.7,-47.54" style=""/>
<polygon fill="black" stroke="black" points="666.2,-47.54 662.7,-37.54 659.2,-47.54 666.2,-47.54" style=""/>
</g>
</g>
</svg>