<?xml version="1.0" standalone="no"?>
<svg xmlns="http://www.w3.org/2000/svg" xmlns:xlink="http://www.w3.org/1999/xlink" width="438pt" height="675pt" viewBox="0.00 0.00 437.54 675.40">
<g id="graph0" class="graph" transform="translate(4,671.4000244140625) scale(1)" data-name="division_flow">

<polygon fill="white" stroke="none" points="-4,4 -4,-671.4 433.54,-671.4 433.54,4 -4,4" style=""/>
<!-- start -->
<g id="node1" class="node" pointer-events="visible" data-name="start">

<polygon fill="none" stroke="black" points="164.83,-667.4 43.23,-667.4 43.23,-631.4 164.83,-631.4 164.83,-667.4" style=""/>
<text text-anchor="middle" x="104.03" y="-645.2" font-family="Helvetica,sans-Serif" font-size="14.00" style="">setDivisionMatrix</text>
</g>
<!-- calc_inv -->
<g id="node2" class="node" pointer-events="visible" data-name="calc_inv">

<polygon fill="none" stroke="black" points="206.3,-594.4 1.76,-594.4 1.76,-558.4 206.3,-558.4 206.3,-594.4" style=""/>
<text text-anchor="middle" x="104.03" y="-572.2" font-family="Helvetica,sans-Serif" font-size="14.00" style="">setInverseMatrixNoAsk (inv B)</text>
</g>
<!-- start&#45;&gt;calc_inv -->
<g id="edge1" class="edge" data-name="start-&gt;calc_inv">

<path fill="none" stroke="black" d="M104.03,-631.21C104.03,-623.63 104.03,-614.5 104.03,-605.94" style=""/>
<polygon fill="black" stroke="black" points="107.53,-605.94 104.03,-595.94 100.53,-605.94 107.53,-605.94" style=""/>
</g>
<!-- inv_ok -->
<g id="node3" class="node" pointer-events="visible" data-name="inv_ok">

<polygon fill="none" stroke="black" points="182.62,-521.4 25.43,-521.4 25.43,-485.4 182.62,-485.4 182.62,-521.4" style=""/>
<text text-anchor="middle" x="104.03" y="-499.2" font-family="Helvetica,sans-Serif" font-size="14.00" style="">getMatrixResult (inv B)</text>
</g>
<!-- calc_inv&#45;&gt;inv_ok -->
<g id="edge2" class="edge" data-name="calc_inv-&gt;inv_ok">

<path fill="none" stroke="black" d="M104.03,-558.21C104.03,-550.63 104.03,-541.5 104.03,-532.94" style=""/>
<polygon fill="black" stroke="black" points="107.53,-532.94 104.03,-522.94 100.53,-532.94 107.53,-532.94" style=""/>
</g>
<!-- copy_i -->
<g id="node4" class="node" pointer-events="visible" data-name="copy_i">

<polygon fill="none" stroke="black" points="178.58,-448.4 29.47,-448.4 29.47,-412.4 178.58,-412.4 178.58,-448.4" style=""/>
<text text-anchor="middle" x="104.03" y="-426.2" font-family="Helvetica,sans-Serif" font-size="14.00" style="">divCopyRowsLoop (i)</text>
</g>
<!-- inv_ok&#45;&gt;copy_i -->
<g id="edge3" class="edge" data-name="inv_ok-&gt;copy_i">

<path fill="none" stroke="black" d="M104.03,-485.21C104.03,-477.63 104.03,-468.5 104.03,-459.94" style=""/>
<polygon fill="black" stroke="black" points="107.53,-459.94 104.03,-449.94 100.53,-459.94 107.53,-459.94" style=""/>
</g>
<!-- copy_j -->
<g id="node5" class="node" pointer-events="visible" data-name="copy_j">

<polygon fill="none" stroke="black" points="142.08,-359.6 -0.03,-359.6 -0.03,-323.6 142.08,-323.6 142.08,-359.6" style=""/>
<text text-anchor="middle" x="71.03" y="-337.4" font-family="Helvetica,sans-Serif" font-size="14.00" style="">divCopyColsLoop (j)</text>
</g>
<!-- copy_i&#45;&gt;copy_j -->
<g id="edge4" class="edge" data-name="copy_i-&gt;copy_j">

<path fill="none" stroke="black" d="M93.53,-411.98C90.51,-406.49 87.39,-400.31 85.03,-394.4 82.04,-386.93 79.47,-378.61 77.39,-370.86" style=""/>
<polygon fill="black" stroke="black" points="80.79,-370.04 74.96,-361.19 74,-371.74 80.79,-370.04" style=""/>
</g>
<!-- alloc -->
<g id="node6" class="node" pointer-events="visible" data-name="alloc">

<polygon fill="none" stroke="black" points="361.68,-359.6 160.38,-359.6 160.38,-323.6 361.68,-323.6 361.68,-359.6" style=""/>
<text text-anchor="middle" x="261.03" y="-337.4" font-family="Helvetica,sans-Serif" font-size="14.00" style="">mallocResultMatrix (A * inv B)</text>
</g>
<!-- copy_i&#45;&gt;alloc -->
<g id="edge6" class="edge" data-name="copy_i-&gt;alloc">

<path fill="none" stroke="black" d="M135.42,-412.04C159.52,-398.72 193.01,-380.21 219.35,-365.64" style=""/>
<polygon fill="black" stroke="black" points="221.04,-368.71 228.09,-360.81 217.65,-362.58 221.04,-368.71" style=""/>
<text text-anchor="middle" x="208.5" y="-381.8" font-family="Times,serif" font-size="14.00" style="">fin i</text>
</g>
<!-- copy_j&#45;&gt;copy_i -->
<g id="edge5" class="edge" data-name="copy_j-&gt;copy_i">

<path fill="none" stroke="black" d="M77.65,-360.01C82.16,-371.88 88.24,-387.86 93.42,-401.49" style=""/>
<polygon fill="black" stroke="black" points="90.14,-402.73 96.97,-410.84 96.69,-400.25 90.14,-402.73" style=""/>
<text text-anchor="middle" x="115.84" y="-381.8" font-family="Times,serif" font-size="14.00" style="">fin j, i++</text>
</g>
<!-- loop_i -->
<g id="node7" class="node" pointer-events="visible" data-name="loop_i">

<polygon fill="none" stroke="black" points="319.4,-286.6 202.65,-286.6 202.65,-250.6 319.4,-250.6 319.4,-286.6" style=""/>
<text text-anchor="middle" x="261.03" y="-264.4" font-family="Helvetica,sans-Serif" font-size="14.00" style="">divRowsLoop (i)</text>
</g>
<!-- alloc&#45;&gt;loop_i -->
<g id="edge7" class="edge" data-name="alloc-&gt;loop_i">

<path fill="none" stroke="black" d="M261.03,-323.41C261.03,-315.83 261.03,-306.7 261.03,-298.14" style=""/>
<polygon fill="black" stroke="black" points="264.53,-298.14 261.03,-288.14 257.53,-298.14 264.53,-298.14" style=""/>
</g>
<!-- loop_j -->
<g id="node8" class="node" pointer-events="visible" data-name="loop_j">

<polygon fill="none" stroke="black" points="282.9,-197.8 173.15,-197.8 173.15,-161.8 282.9,-161.8 282.9,-197.8" style=""/>
<text text-anchor="middle" x="228.03" y="-175.6" font-family="Helvetica,sans-Serif" font-size="14.00" style="">divColsLoop (j)</text>
</g>
<!-- loop_i&#45;&gt;loop_j -->
<g id="edge8" class="edge" data-name="loop_i-&gt;loop_j">

<path fill="none" stroke="black" d="M250.53,-250.18C247.51,-244.69 244.39,-238.51 242.03,-232.6 239.04,-225.13 236.47,-216.81 234.39,-209.06" style=""/>
<polygon fill="black" stroke="black" points="237.79,-208.24 231.96,-199.39 231,-209.94 237.79,-208.24" style=""/>
</g>
<!-- print -->
<g id="node11" class="node" pointer-events="visible" data-name="print">

<polygon fill="none" stroke="black" points="409.91,-197.8 300.15,-197.8 300.15,-161.8 409.91,-161.8 409.91,-197.8" style=""/>
<text text-anchor="middle" x="355.03" y="-175.6" font-family="Helvetica,sans-Serif" font-size="14.00" style="">printLastResult</text>
</g>
<!-- loop_i&#45;&gt;print -->
<g id="edge14" class="edge" data-name="loop_i-&gt;print">

<path fill="none" stroke="black" d="M281.7,-250.42C288.28,-244.83 295.53,-238.53 302.03,-232.6 311.39,-224.05 321.39,-214.41 330.16,-205.78" style=""/>
<polygon fill="black" stroke="black" points="332.41,-208.48 337.05,-198.96 327.48,-203.51 332.41,-208.48" style=""/>
<text text-anchor="middle" x="331.5" y="-220" font-family="Times,serif" font-size="14.00" style="">fin i</text>
</g>
<!-- loop_j&#45;&gt;loop_i -->
<g id="edge13" class="edge" data-name="loop_j-&gt;loop_i">

<path fill="none" stroke="black" d="M234.65,-198.21C239.16,-210.08 245.24,-226.06 250.42,-239.69" style=""/>
<polygon fill="black" stroke="black" points="247.14,-240.93 253.97,-249.04 253.69,-238.45 247.14,-240.93" style=""/>
<text text-anchor="middle" x="272.84" y="-220" font-family="Times,serif" font-size="14.00" style="">fin j, i++</text>
</g>
<!-- loop_k -->
<g id="node9" class="node" pointer-events="visible" data-name="loop_k">

<polygon fill="none" stroke="black" points="159.69,-124.8 42.36,-124.8 42.36,-88.8 159.69,-88.8 159.69,-124.8" style=""/>
<text text-anchor="middle" x="101.03" y="-102.6" font-family="Helvetica,sans-Serif" font-size="14.00" style="">divInnerLoop (k)</text>
</g>
<!-- loop_j&#45;&gt;loop_k -->
<g id="edge9" class="edge" data-name="loop_j-&gt;loop_k">

<path fill="none" stroke="black" d="M196.96,-161.43C180.35,-152.15 159.7,-140.6 141.82,-130.61" style=""/>
<polygon fill="black" stroke="black" points="143.97,-127.8 133.54,-125.97 140.56,-133.91 143.97,-127.8" style=""/>
</g>
<!-- loop_k&#45;&gt;loop_k -->
<g id="edge10" class="edge" data-name="loop_k-&gt;loop_k">

<path fill="none" stroke="black" d="M160.11,-113.22C170.43,-112.36 177.61,-110.22 177.61,-106.8 177.61,-104.82 175.21,-103.27 171.19,-102.15" style=""/>
<polygon fill="black" stroke="black" points="172.03,-98.74 161.6,-100.62 170.93,-105.65 172.03,-98.74" style=""/>
<text text-anchor="middle" x="189.01" y="-102.6" font-family="Times,serif" font-size="14.00" style="">k++</text>
</g>
<!-- store -->
<g id="node10" class="node" pointer-events="visible" data-name="store">

<polygon fill="none" stroke="black" points="269.57,-36 162.49,-36 162.49,0 269.57,0 269.57,-36" style=""/>
<text text-anchor="middle" x="216.03" y="-13.8" font-family="Helvetica,sans-Serif" font-size="14.00" style="">divStoreResult</text>
</g>
<!-- loop_k&#45;&gt;store -->
<g id="edge11" class="edge" data-name="loop_k-&gt;store">

<path fill="none" stroke="black" d="M124.02,-88.44C141.26,-75.43 165.06,-57.47 184.14,-43.07" style=""/>
<polygon fill="black" stroke="black" points="185.99,-46.06 191.86,-37.24 181.77,-40.47 185.99,-46.06" style=""/>
<text text-anchor="middle" x="182.05" y="-58.2" font-family="Times,serif" font-size="14.00" style="">fin k</text>
</g>
<!-- store&#45;&gt;loop_j -->
<g id="edge12" class="edge" data-name="store-&gt;loop_j">

<path fill="none" stroke="black" d="M217.33,-36.38C219.39,-63.75 223.4,-117.15 225.88,-150.22" style=""/>
<polygon fill="black" stroke="black" points="222.37,-150.18 226.61,-159.89 229.35,-149.65 222.37,-150.18" style=""/>
<text text-anchor="middle" x="233.87" y="-102.6" font-family="Times,serif" font-size="14.00" style="">j++</text>
</g>
<!-- free_tmp -->
<g id="node12" class="node" pointer-events="visible" data-name="free_tmp">

<polygon fill="none" stroke="black" points="429.55,-124.8 280.51,-124.8 280.51,-88.8 429.55,-88.8 429.55,-124.8" style=""/>
<text text-anchor="middle" x="355.03" y="-102.6" font-family="Helvetica,sans-Serif" font-size="14.00" style="">matrixFree (inv temp)</text>
</g>
<!-- print&#45;&gt;free_tmp -->
<g id="edge15" class="edge" data-name="print-&gt;free_tmp">

<path fill="none" stroke="black" d="M355.03,-161.61C355.03,-154.03 355.03,-144.9 355.03,-136.34" style=""/>
<polygon fill="black" stroke="black" points="358.53,-136.34 355.03,-126.34 351.53,-136.34 358.53,-136.34" style=""/>
</g>
<!-- end -->
<g id="node13" class="node" pointer-events="visible" data-name="end">

<polygon fill="none" stroke="black" points="384.33,-36 325.72,-36 325.72,0 384.33,0 384.33,-36" style=""/>
<text text-anchor="middle" x="355.03" y="-13.8" font-family="Helvetica,sans-Serif" font-size="14.00" style="">divEnd</text>
</g>
<!-- free_tmp&#45;&gt;end -->
<g id="edge16" class="edge" data-name="free_tmp-&gt;end">

<path fill="none" stroke="black" d="M355.03,-88.65C355.03,-76.96 355.03,-61.19 355.03,-47.62" style=""/>
<polygon fill="black" stroke="black" points="358.53,-47.92 355.03,-37.92 351.53,-47.92 358.53,-47.92" style=""/>
</g>
</g>
</svg>