<?xml version="1.0" standalone="no"?>
<svg xmlns="http://www.w3.org/2000/svg" xmlns:xlink="http://www.w3.org/1999/xlink" width="552pt" height="545pt" viewBox="0.00 0.00 551.64 545.20">
<g id="graph0" class="graph" transform="translate(4,541.2000122070312) scale(1)" data-name="gauss_jordan_flow">

<polygon fill="white" stroke="none" points="-4,4 -4,-541.2 547.64,-541.2 547.64,4 -4,4" style=""/>
<!-- start -->
<g id="node1" class="node" pointer-events="visible" data-name="start">

<polygon fill="none" stroke="black" points="407.12,-537.2 209.54,-537.2 209.54,-501.2 407.12,-501.2 407.12,-537.2" style=""/>
<text text-anchor="middle" x="308.33" y="-515" font-family="Helvetica,sans-Serif" font-size="14.00" style="">setGaussJordanMatrixNoAsk</text>
</g>
<!-- gauss -->
<g id="node2" class="node" pointer-events="visible" data-name="gauss">

<polygon fill="none" stroke="black" points="385.81,-464.2 230.84,-464.2 230.84,-428.2 385.81,-428.2 385.81,-464.2" style=""/>
<text text-anchor="middle" x="308.33" y="-442" font-family="Helvetica,sans-Serif" font-size="14.00" style="">setGaussMatrixNoAsk</text>
</g>
<!-- start&#45;&gt;gauss -->
<g id="edge1" class="edge" data-name="start-&gt;gauss">

<path fill="none" stroke="black" d="M308.33,-501.01C308.33,-493.43 308.33,-484.3 308.33,-475.74" style=""/>
<polygon fill="black" stroke="black" points="311.83,-475.74 308.33,-465.74 304.83,-475.74 311.83,-475.74" style=""/>
</g>
<!-- kloop -->
<g id="node3" class="node" pointer-events="visible" data-name="kloop">

<polygon fill="none" stroke="black" points="386.69,-391.2 229.97,-391.2 229.97,-355.2 386.69,-355.2 386.69,-391.2" style=""/>
<text text-anchor="middle" x="308.33" y="-369" font-family="Helvetica,sans-Serif" font-size="14.00" style="">gaussJordanKLoop (k)</text>
</g>
<!-- gauss&#45;&gt;kloop -->
<g id="edge2" class="edge" data-name="gauss-&gt;kloop">

<path fill="none" stroke="black" d="M308.33,-428.01C308.33,-420.43 308.33,-411.3 308.33,-402.74" style=""/>
<polygon fill="black" stroke="black" points="311.83,-402.74 308.33,-392.74 304.83,-402.74 311.83,-402.74" style=""/>
</g>
<!-- norm_j -->
<g id="node4" class="node" pointer-events="visible" data-name="norm_j">

<polygon fill="none" stroke="black" points="234.48,-302.4 0.17,-302.4 0.17,-266.4 234.48,-266.4 234.48,-302.4" style=""/>
<text text-anchor="middle" x="117.33" y="-280.2" font-family="Helvetica,sans-Serif" font-size="14.00" style="">gaussJordanNormalizeRowLoop (j)</text>
</g>
<!-- kloop&#45;&gt;norm_j -->
<g id="edge3" class="edge" data-name="kloop-&gt;norm_j">

<path fill="none" stroke="black" d="M270.13,-354.84C240.17,-341.23 198.27,-322.18 165.92,-307.48" style=""/>
<polygon fill="black" stroke="black" points="167.71,-304.45 157.16,-303.5 164.81,-310.83 167.71,-304.45" style=""/>
<text text-anchor="middle" x="253.47" y="-324.6" font-family="Times,serif" font-size="14.00" style="">pivot ok</text>
</g>
<!-- print -->
<g id="node8" class="node" pointer-events="visible" data-name="print">

<polygon fill="none" stroke="black" points="543.46,-302.4 379.19,-302.4 379.19,-266.4 543.46,-266.4 543.46,-302.4" style=""/>
<text text-anchor="middle" x="461.33" y="-280.2" font-family="Helvetica,sans-Serif" font-size="14.00" style="">gaussJordanPrintResult</text>
</g>
<!-- kloop&#45;&gt;print -->
<g id="edge11" class="edge" data-name="kloop-&gt;print">

<path fill="none" stroke="black" d="M338.92,-354.84C362.4,-341.52 395.04,-323.01 420.71,-308.44" style=""/>
<polygon fill="black" stroke="black" points="422.24,-311.6 429.21,-303.62 418.78,-305.51 422.24,-311.6" style=""/>
<text text-anchor="middle" x="412.35" y="-324.6" font-family="Times,serif" font-size="14.00" style="">fin k</text>
</g>
<!-- norm_j&#45;&gt;norm_j -->
<g id="edge4" class="edge" data-name="norm_j-&gt;norm_j">

<path fill="none" stroke="black" d="M234.72,-291.07C245.71,-289.7 252.65,-287.48 252.65,-284.4 252.65,-282.57 250.21,-281.05 245.92,-279.82" style=""/>
<polygon fill="black" stroke="black" points="246.68,-276.4 236.21,-278 245.4,-283.28 246.68,-276.4" style=""/>
<text text-anchor="middle" x="262.49" y="-280.2" font-family="Times,serif" font-size="14.00" style="">j++</text>
</g>
<!-- iloop -->
<g id="node5" class="node" pointer-events="visible" data-name="iloop">

<polygon fill="none" stroke="black" points="324.85,-213.6 177.8,-213.6 177.8,-177.6 324.85,-177.6 324.85,-213.6" style=""/>
<text text-anchor="middle" x="251.33" y="-191.4" font-family="Helvetica,sans-Serif" font-size="14.00" style="">gaussJordanILoop (i)</text>
</g>
<!-- norm_j&#45;&gt;iloop -->
<g id="edge5" class="edge" data-name="norm_j-&gt;iloop">

<path fill="none" stroke="black" d="M144.12,-266.04C164.48,-252.86 192.7,-234.58 215.07,-220.08" style=""/>
<polygon fill="black" stroke="black" points="216.82,-223.12 223.31,-214.75 213.01,-217.25 216.82,-223.12" style=""/>
<text text-anchor="middle" x="208.8" y="-235.8" font-family="Times,serif" font-size="14.00" style="">fin j</text>
</g>
<!-- iloop&#45;&gt;kloop -->
<g id="edge10" class="edge" data-name="iloop-&gt;kloop">

<path fill="none" stroke="black" d="M259.75,-214.09C266.24,-228.03 275.13,-248.17 281.33,-266.4 290.08,-292.14 297.5,-322.25 302.34,-343.75" style=""/>
<polygon fill="black" stroke="black" points="298.86,-344.24 304.42,-353.25 305.7,-342.74 298.86,-344.24" style=""/>
<text text-anchor="middle" x="318.69" y="-280.2" font-family="Times,serif" font-size="14.00" style="">fin i, k++</text>
</g>
<!-- jloop -->
<g id="node6" class="node" pointer-events="visible" data-name="jloop">

<polygon fill="none" stroke="black" points="252.46,-124.8 102.19,-124.8 102.19,-88.8 252.46,-88.8 252.46,-124.8" style=""/>
<text text-anchor="middle" x="177.33" y="-102.6" font-family="Helvetica,sans-Serif" font-size="14.00" style="">gaussJordanJLoop (j)</text>
</g>
<!-- iloop&#45;&gt;jloop -->
<g id="edge6" class="edge" data-name="iloop-&gt;jloop">

<path fill="none" stroke="black" d="M236.71,-177.45C226.03,-164.93 211.38,-147.74 199.3,-133.57" style=""/>
<polygon fill="black" stroke="black" points="202.3,-131.7 193.15,-126.36 196.98,-136.24 202.3,-131.7" style=""/>
<text text-anchor="middle" x="236.55" y="-147" font-family="Times,serif" font-size="14.00" style="">i != k</text>
</g>
<!-- jloop&#45;&gt;jloop -->
<g id="edge7" class="edge" data-name="jloop-&gt;jloop">

<path fill="none" stroke="black" d="M252.75,-114.27C263.46,-113.06 270.64,-110.57 270.64,-106.8 270.64,-104.56 268.11,-102.77 263.81,-101.44" style=""/>
<polygon fill="black" stroke="black" points="264.72,-98.05 254.24,-99.61 263.41,-104.92 264.72,-98.05" style=""/>
<text text-anchor="middle" x="280.48" y="-102.6" font-family="Times,serif" font-size="14.00" style="">j++</text>
</g>
<!-- force0 -->
<g id="node7" class="node" pointer-events="visible" data-name="force0">

<polygon fill="none" stroke="black" points="379.16,-36 125.5,-36 125.5,0 379.16,0 379.16,-36" style=""/>
<text text-anchor="middle" x="252.33" y="-13.8" font-family="Helvetica,sans-Serif" font-size="14.00" style="">gaussJordanForceZeroAtPivotColumn</text>
</g>
<!-- jloop&#45;&gt;force0 -->
<g id="edge8" class="edge" data-name="jloop-&gt;force0">

<path fill="none" stroke="black" d="M192.14,-88.65C202.96,-76.13 217.81,-58.94 230.06,-44.77" style=""/>
<polygon fill="black" stroke="black" points="232.4,-47.41 236.29,-37.56 227.11,-42.83 232.4,-47.41" style=""/>
<text text-anchor="middle" x="233.8" y="-58.2" font-family="Times,serif" font-size="14.00" style="">fin j</text>
</g>
<!-- force0&#45;&gt;iloop -->
<g id="edge9" class="edge" data-name="force0-&gt;iloop">

<path fill="none" stroke="black" d="M268.38,-36.39C279.47,-49.65 293.27,-68.96 299.33,-88.8 304,-104.1 304.07,-109.52 299.33,-124.8 294.39,-140.69 284.44,-156.17 274.87,-168.5" style=""/>
<polygon fill="black" stroke="black" points="272.29,-166.13 268.68,-176.09 277.71,-170.56 272.29,-166.13" style=""/>
<text text-anchor="middle" x="313.17" y="-102.6" font-family="Times,serif" font-size="14.00" style="">i++</text>
</g>
<!-- end -->
<g id="node9" class="node" pointer-events="visible" data-name="end">

<polygon fill="none" stroke="black" points="521.9,-213.6 400.75,-213.6 400.75,-177.6 521.9,-177.6 521.9,-213.6" style=""/>
<text text-anchor="middle" x="461.33" y="-191.4" font-family="Helvetica,sans-Serif" font-size="14.00" style="">gaussJordanEnd</text>
</g>
<!-- print&#45;&gt;end -->
<g id="edge12" class="edge" data-name="print-&gt;end">

<path fill="none" stroke="black" d="M461.33,-266.25C461.33,-254.56 461.33,-238.79 461.33,-225.22" style=""/>
<polygon fill="black" stroke="black" points="464.83,-225.52 461.33,-215.52 457.83,-225.52 464.83,-225.52" style=""/>
</g>
</g>
</svg>