<?xml version="1.0" standalone="no"?>
<svg xmlns="http://www.w3.org/2000/svg" xmlns:xlink="http://www.w3.org/1999/xlink" width="611pt" height="561pt" viewBox="0.00 0.00 610.97 561.00">
<g id="graph0" class="graph" transform="translate(4,557) scale(1)" data-name="gauss_flow">

<polygon fill="white" stroke="none" points="-4,4 -4,-557 606.97,-557 606.97,4 -4,4" style=""/>
<!-- start -->
<g id="node1" class="node" pointer-events="visible" data-name="start">

<polygon fill="none" stroke="black" points="318.41,-553 163.44,-553 163.44,-517 318.41,-517 318.41,-553" style=""/>
<text text-anchor="middle" x="240.93" y="-530.8" font-family="Helvetica,sans-Serif" font-size="14.00" style="">setGaussMatrixNoAsk</text>
</g>
<!-- copy_i -->
<g id="node2" class="node" pointer-events="visible" data-name="copy_i">

<polygon fill="none" stroke="black" points="324.94,-480 156.91,-480 156.91,-444 324.94,-444 324.94,-480" style=""/>
<text text-anchor="middle" x="240.93" y="-457.8" font-family="Helvetica,sans-Serif" font-size="14.00" style="">gaussCopyRowsLoop (i)</text>
</g>
<!-- start&#45;&gt;copy_i -->
<g id="edge1" class="edge" data-name="start-&gt;copy_i">

<path fill="none" stroke="black" d="M240.93,-516.81C240.93,-509.23 240.93,-500.1 240.93,-491.54" style=""/>
<polygon fill="black" stroke="black" points="244.43,-491.54 240.93,-481.54 237.43,-491.54 244.43,-491.54" style=""/>
</g>
<!-- copy_j -->
<g id="node3" class="node" pointer-events="visible" data-name="copy_j">

<polygon fill="none" stroke="black" points="256.44,-391.2 95.41,-391.2 95.41,-355.2 256.44,-355.2 256.44,-391.2" style=""/>
<text text-anchor="middle" x="175.93" y="-369" font-family="Helvetica,sans-Serif" font-size="14.00" style="">gaussCopyColsLoop (j)</text>
</g>
<!-- copy_i&#45;&gt;copy_j -->
<g id="edge2" class="edge" data-name="copy_i-&gt;copy_j">

<path fill="none" stroke="black" d="M239.34,-443.86C237.64,-433.1 234.15,-419.38 226.93,-409.2 224.2,-405.36 220.91,-401.8 217.33,-398.55" style=""/>
<polygon fill="black" stroke="black" points="219.75,-396 209.76,-392.47 215.37,-401.46 219.75,-396" style=""/>
</g>
<!-- kloop -->
<g id="node4" class="node" pointer-events="visible" data-name="kloop">

<polygon fill="none" stroke="black" points="388.98,-391.2 274.87,-391.2 274.87,-355.2 388.98,-355.2 388.98,-391.2" style=""/>
<text text-anchor="middle" x="331.93" y="-369" font-family="Helvetica,sans-Serif" font-size="14.00" style="">gaussKLoop (k)</text>
</g>
<!-- copy_i&#45;&gt;kloop -->
<g id="edge4" class="edge" data-name="copy_i-&gt;kloop">

<path fill="none" stroke="black" d="M258.91,-443.85C272.28,-431.09 290.73,-413.49 305.74,-399.17" style=""/>
<polygon fill="black" stroke="black" points="307.76,-402.09 312.58,-392.66 302.93,-397.02 307.76,-402.09" style=""/>
<text text-anchor="middle" x="306.4" y="-413.4" font-family="Times,serif" font-size="14.00" style="">fin i</text>
</g>
<!-- copy_j&#45;&gt;copy_i -->
<g id="edge3" class="edge" data-name="copy_j-&gt;copy_i">

<path fill="none" stroke="black" d="M170.44,-391.26C168.05,-401.98 167.03,-415.69 173.31,-426 175.78,-430.07 178.89,-433.68 182.42,-436.89" style=""/>
<polygon fill="black" stroke="black" points="180.02,-439.46 190.09,-442.75 184.27,-433.89 180.02,-439.46" style=""/>
<text text-anchor="middle" x="198.74" y="-413.4" font-family="Times,serif" font-size="14.00" style="">fin j, i++</text>
</g>
<!-- find_pivot -->
<g id="node5" class="node" pointer-events="visible" data-name="find_pivot">

<polygon fill="none" stroke="black" points="335.17,-302.4 146.68,-302.4 146.68,-266.4 335.17,-266.4 335.17,-302.4" style=""/>
<text text-anchor="middle" x="240.93" y="-280.2" font-family="Helvetica,sans-Serif" font-size="14.00" style="">gaussFindPivotRowLoop (r)</text>
</g>
<!-- kloop&#45;&gt;find_pivot -->
<g id="edge5" class="edge" data-name="kloop-&gt;find_pivot">

<path fill="none" stroke="black" d="M313.95,-355.05C300.58,-342.29 282.12,-324.69 267.11,-310.37" style=""/>
<polygon fill="black" stroke="black" points="269.93,-308.22 260.28,-303.86 265.1,-313.29 269.93,-308.22" style=""/>
</g>
<!-- print_sign -->
<g id="node12" class="node" pointer-events="visible" data-name="print_sign">

<polygon fill="none" stroke="black" points="603.01,-302.4 390.85,-302.4 390.85,-266.4 603.01,-266.4 603.01,-302.4" style=""/>
<text text-anchor="middle" x="496.93" y="-280.2" font-family="Helvetica,sans-Serif" font-size="14.00" style="">gaussPrintResult (signo swaps)</text>
</g>
<!-- kloop&#45;&gt;print_sign -->
<g id="edge16" class="edge" data-name="kloop-&gt;print_sign">

<path fill="none" stroke="black" d="M364.92,-354.84C390.47,-341.4 426.06,-322.68 453.86,-308.06" style=""/>
<polygon fill="black" stroke="black" points="455.15,-311.33 462.37,-303.58 451.89,-305.14 455.15,-311.33" style=""/>
<text text-anchor="middle" x="442.95" y="-324.6" font-family="Times,serif" font-size="14.00" style="">fin k</text>
</g>
<!-- swap_j -->
<g id="node6" class="node" pointer-events="visible" data-name="swap_j">

<polygon fill="none" stroke="black" points="163.78,-213.6 0.07,-213.6 0.07,-177.6 163.78,-177.6 163.78,-213.6" style=""/>
<text text-anchor="middle" x="81.93" y="-191.4" font-family="Helvetica,sans-Serif" font-size="14.00" style="">gaussSwapColsLoop (j)</text>
</g>
<!-- find_pivot&#45;&gt;swap_j -->
<g id="edge6" class="edge" data-name="find_pivot-&gt;swap_j">

<path fill="none" stroke="black" d="M207.05,-265.98C196.39,-260.43 184.61,-254.22 173.88,-248.4 156.67,-239.07 137.81,-228.5 121.68,-219.36" style=""/>
<polygon fill="black" stroke="black" points="123.76,-216.52 113.34,-214.62 120.31,-222.61 123.76,-216.52" style=""/>
<text text-anchor="middle" x="204.45" y="-235.8" font-family="Times,serif" font-size="14.00" style="">pivot swap</text>
</g>
<!-- iloop -->
<g id="node7" class="node" pointer-events="visible" data-name="iloop">

<polygon fill="none" stroke="black" points="288.14,-213.6 183.71,-213.6 183.71,-177.6 288.14,-177.6 288.14,-213.6" style=""/>
<text text-anchor="middle" x="235.93" y="-191.4" font-family="Helvetica,sans-Serif" font-size="14.00" style="">gaussILoop (i)</text>
</g>
<!-- find_pivot&#45;&gt;iloop -->
<g id="edge7" class="edge" data-name="find_pivot-&gt;iloop">

<path fill="none" stroke="black" d="M239.94,-266.25C239.27,-254.56 238.36,-238.79 237.58,-225.22" style=""/>
<polygon fill="black" stroke="black" points="241.09,-225.3 237.02,-215.52 234.1,-225.71 241.09,-225.3" style=""/>
<text text-anchor="middle" x="262.07" y="-235.8" font-family="Times,serif" font-size="14.00" style="">pivot ok</text>
</g>
<!-- swap_j&#45;&gt;kloop -->
<g id="edge8" class="edge" data-name="swap_j-&gt;kloop">

<path fill="none" stroke="black" d="M77.82,-213.77C73.44,-236.68 69.63,-277.26 90.1,-302.4 95.78,-309.38 194.24,-336.26 263.75,-354.56" style=""/>
<polygon fill="black" stroke="black" points="262.61,-357.88 273.17,-357.03 264.39,-351.11 262.61,-357.88" style=""/>
<text text-anchor="middle" x="114.84" y="-280.2" font-family="Times,serif" font-size="14.00" style="">fin swap</text>
</g>
<!-- jloop -->
<g id="node8" class="node" pointer-events="visible" data-name="jloop">

<polygon fill="none" stroke="black" points="279.75,-124.8 172.1,-124.8 172.1,-88.8 279.75,-88.8 279.75,-124.8" style=""/>
<text text-anchor="middle" x="225.93" y="-102.6" font-family="Helvetica,sans-Serif" font-size="14.00" style="">gaussJLoop (j)</text>
</g>
<!-- iloop&#45;&gt;jloop -->
<g id="edge9" class="edge" data-name="iloop-&gt;jloop">

<path fill="none" stroke="black" d="M233.95,-177.45C232.6,-165.76 230.79,-149.99 229.22,-136.42" style=""/>
<polygon fill="black" stroke="black" points="232.73,-136.25 228.11,-126.71 225.77,-137.05 232.73,-136.25" style=""/>
</g>
<!-- update_prev -->
<g id="node11" class="node" pointer-events="visible" data-name="update_prev">

<polygon fill="none" stroke="black" points="456.34,-124.8 297.51,-124.8 297.51,-88.8 456.34,-88.8 456.34,-124.8" style=""/>
<text text-anchor="middle" x="376.93" y="-102.6" font-family="Helvetica,sans-Serif" font-size="14.00" style="">gaussUpdatePrevPivot</text>
</g>
<!-- iloop&#45;&gt;update_prev -->
<g id="edge14" class="edge" data-name="iloop-&gt;update_prev">

<path fill="none" stroke="black" d="M264.12,-177.24C285.64,-164 315.5,-145.61 339.1,-131.09" style=""/>
<polygon fill="black" stroke="black" points="340.81,-134.14 347.49,-125.92 337.14,-128.18 340.81,-134.14" style=""/>
<text text-anchor="middle" x="331.4" y="-147" font-family="Times,serif" font-size="14.00" style="">fin i</text>
</g>
<!-- store -->
<g id="node9" class="node" pointer-events="visible" data-name="store">

<polygon fill="none" stroke="black" points="370.74,-36 201.12,-36 201.12,0 370.74,0 370.74,-36" style=""/>
<text text-anchor="middle" x="285.93" y="-13.8" font-family="Helvetica,sans-Serif" font-size="14.00" style="">gaussStoreBareissValue</text>
</g>
<!-- jloop&#45;&gt;store -->
<g id="edge10" class="edge" data-name="jloop-&gt;store">

<path fill="none" stroke="black" d="M239.7,-88.58C244.04,-82.99 248.78,-76.7 252.93,-70.8 258.59,-62.73 264.47,-53.74 269.66,-45.54" style=""/>
<polygon fill="black" stroke="black" points="272.46,-47.66 274.8,-37.33 266.53,-43.95 272.46,-47.66" style=""/>
<text text-anchor="middle" x="273.77" y="-58.2" font-family="Times,serif" font-size="14.00" style="">j++</text>
</g>
<!-- zero_col -->
<g id="node10" class="node" pointer-events="visible" data-name="zero_col">

<polygon fill="none" stroke="black" points="183.83,-36 32.03,-36 32.03,0 183.83,0 183.83,-36" style=""/>
<text text-anchor="middle" x="107.93" y="-13.8" font-family="Helvetica,sans-Serif" font-size="14.00" style="">gaussZeroBelowPivot</text>
</g>
<!-- jloop&#45;&gt;zero_col -->
<g id="edge12" class="edge" data-name="jloop-&gt;zero_col">

<path fill="none" stroke="black" d="M202.33,-88.44C184.65,-75.43 160.22,-57.47 140.65,-43.07" style=""/>
<polygon fill="black" stroke="black" points="142.83,-40.33 132.7,-37.22 138.68,-45.97 142.83,-40.33" style=""/>
<text text-anchor="middle" x="189.4" y="-58.2" font-family="Times,serif" font-size="14.00" style="">fin j</text>
</g>
<!-- store&#45;&gt;jloop -->
<g id="edge11" class="edge" data-name="store-&gt;jloop">

<path fill="none" stroke="black" d="M246.53,-36.39C239.72,-41.13 233.47,-46.96 229.25,-54 225.07,-60.96 223.42,-69.43 223.04,-77.48" style=""/>
<polygon fill="black" stroke="black" points="219.53,-77.32 223.21,-87.26 226.53,-77.2 219.53,-77.32" style=""/>
<text text-anchor="middle" x="239.77" y="-58.2" font-family="Times,serif" font-size="14.00" style="">j++</text>
</g>
<!-- zero_col&#45;&gt;iloop -->
<g id="edge13" class="edge" data-name="zero_col-&gt;iloop">

<path fill="none" stroke="black" d="M110.42,-36.19C114.32,-58.4 123.57,-97.45 143.25,-124.8 156.65,-143.42 176.47,-159.29 194.35,-171.17" style=""/>
<polygon fill="black" stroke="black" points="192.44,-174.11 202.75,-176.54 196.21,-168.21 192.44,-174.11" style=""/>
<text text-anchor="middle" x="153.77" y="-102.6" font-family="Times,serif" font-size="14.00" style="">i++</text>
</g>
<!-- update_prev&#45;&gt;kloop -->
<g id="edge15" class="edge" data-name="update_prev-&gt;kloop">

<path fill="none" stroke="black" d="M373.98,-125.25C368.23,-159.31 355.09,-237.04 343.93,-302.4 341.62,-315.9 339.05,-330.87 336.88,-343.47" style=""/>
<polygon fill="black" stroke="black" points="333.45,-342.76 335.2,-353.21 340.35,-343.95 333.45,-342.76" style=""/>
<text text-anchor="middle" x="367.32" y="-235.8" font-family="Times,serif" font-size="14.00" style="">k++</text>
</g>
<!-- end -->
<g id="node13" class="node" pointer-events="visible" data-name="end">

<polygon fill="none" stroke="black" points="536.2,-213.6 457.66,-213.6 457.66,-177.6 536.2,-177.6 536.2,-213.6" style=""/>
<text text-anchor="middle" x="496.93" y="-191.4" font-family="Helvetica,sans-Serif" font-size="14.00" style="">gaussEnd</text>
</g>
<!-- print_sign&#45;&gt;end -->
<g id="edge17" class="edge" data-name="print_sign-&gt;end">

<path fill="none" stroke="black" d="M496.93,-266.25C496.93,-254.56 496.93,-238.79 496.93,-225.22" style=""/>
<polygon fill="black" stroke="black" points="500.43,-225.52 496.93,-215.52 493.43,-225.52 500.43,-225.52" style=""/>
</g>
</g>
</svg>