<?xml version="1.0" standalone="no"?>
<svg xmlns="http://www.w3.org/2000/svg" xmlns:xlink="http://www.w3.org/1999/xlink" width="269pt" height="352pt" viewBox="0.00 0.00 268.62 351.80">
<g id="graph0" class="graph" transform="translate(4,347.79998779296875) scale(1)" data-name="identity_flow">

<polygon fill="white" stroke="none" points="-4,4 -4,-347.8 264.62,-347.8 264.62,4 -4,4" style=""/>
<!-- start -->
<g id="node1" class="node" pointer-events="visible" data-name="start">

<polygon fill="none" stroke="black" points="149.74,-343.8 31.89,-343.8 31.89,-307.8 149.74,-307.8 149.74,-343.8" style=""/>
<text text-anchor="middle" x="90.81" y="-321.6" font-family="Helvetica,sans-Serif" font-size="14.00" style="">setIdentityMatrix</text>
</g>
<!-- alloc -->
<g id="node2" class="node" pointer-events="visible" data-name="alloc">

<polygon fill="none" stroke="black" points="158.06,-270.8 23.57,-270.8 23.57,-234.8 158.06,-234.8 158.06,-270.8" style=""/>
<text text-anchor="middle" x="90.81" y="-248.6" font-family="Helvetica,sans-Serif" font-size="14.00" style="">mallocResultMatrix</text>
</g>
<!-- start&#45;&gt;alloc -->
<g id="edge1" class="edge" data-name="start-&gt;alloc">

<path fill="none" stroke="black" d="M90.81,-307.61C90.81,-300.03 90.81,-290.9 90.81,-282.34" style=""/>
<polygon fill="black" stroke="black" points="94.31,-282.34 90.81,-272.34 87.31,-282.34 94.31,-282.34" style=""/>
</g>
<!-- loop_i -->
<g id="node3" class="node" pointer-events="visible" data-name="loop_i">

<polygon fill="none" stroke="black" points="161.85,-197.8 19.77,-197.8 19.77,-161.8 161.85,-161.8 161.85,-197.8" style=""/>
<text text-anchor="middle" x="90.81" y="-175.6" font-family="Helvetica,sans-Serif" font-size="14.00" style="">loopIdentityMatrix (i)</text>
</g>
<!-- alloc&#45;&gt;loop_i -->
<g id="edge2" class="edge" data-name="alloc-&gt;loop_i">

<path fill="none" stroke="black" d="M90.81,-234.61C90.81,-227.03 90.81,-217.9 90.81,-209.34" style=""/>
<polygon fill="black" stroke="black" points="94.31,-209.34 90.81,-199.34 87.31,-209.34 94.31,-209.34" style=""/>
</g>
<!-- store -->
<g id="node4" class="node" pointer-events="visible" data-name="store">

<polygon fill="none" stroke="black" points="115.44,-109 0.19,-109 0.19,-73 115.44,-73 115.44,-109" style=""/>
<text text-anchor="middle" x="57.81" y="-86.8" font-family="Helvetica,sans-Serif" font-size="14.00" style="">store diagonal 1</text>
</g>
<!-- loop_i&#45;&gt;store -->
<g id="edge3" class="edge" data-name="loop_i-&gt;store">

<path fill="none" stroke="black" d="M80.32,-161.38C77.3,-155.89 74.18,-149.71 71.81,-143.8 68.83,-136.33 66.26,-128.01 64.17,-120.26" style=""/>
<polygon fill="black" stroke="black" points="67.58,-119.44 61.75,-110.59 60.79,-121.14 67.58,-119.44" style=""/>
</g>
<!-- print -->
<g id="node5" class="node" pointer-events="visible" data-name="print">

<polygon fill="none" stroke="black" points="243.69,-109 133.93,-109 133.93,-73 243.69,-73 243.69,-109" style=""/>
<text text-anchor="middle" x="188.81" y="-86.8" font-family="Helvetica,sans-Serif" font-size="14.00" style="">printLastResult</text>
</g>
<!-- loop_i&#45;&gt;print -->
<g id="edge5" class="edge" data-name="loop_i-&gt;print">

<path fill="none" stroke="black" d="M110.18,-161.65C124.58,-148.89 144.45,-131.29 160.62,-116.97" style=""/>
<polygon fill="black" stroke="black" points="162.86,-119.66 168.02,-110.41 158.22,-114.42 162.86,-119.66" style=""/>
<text text-anchor="middle" x="159.28" y="-131.2" font-family="Times,serif" font-size="14.00" style="">fin i</text>
</g>
<!-- store&#45;&gt;loop_i -->
<g id="edge4" class="edge" data-name="store-&gt;loop_i">

<path fill="none" stroke="black" d="M64.43,-109.41C68.95,-121.28 75.02,-137.26 80.2,-150.89" style=""/>
<polygon fill="black" stroke="black" points="76.93,-152.13 83.76,-160.24 83.47,-149.65 76.93,-152.13" style=""/>
<text text-anchor="middle" x="87.65" y="-131.2" font-family="Times,serif" font-size="14.00" style="">i++</text>
</g>
<!-- end -->
<g id="node6" class="node" pointer-events="visible" data-name="end">

<polygon fill="none" stroke="black" points="260.43,-36 117.19,-36 117.19,0 260.43,0 260.43,-36" style=""/>
<text text-anchor="middle" x="188.81" y="-13.8" font-family="Helvetica,sans-Serif" font-size="14.00" style="">endSetIdentityMatrix</text>
</g>
<!-- print&#45;&gt;end -->
<g id="edge6" class="edge" data-name="print-&gt;end">

<path fill="none" stroke="black" d="M188.81,-72.81C188.81,-65.23 188.81,-56.1 188.81,-47.54" style=""/>
<polygon fill="black" stroke="black" points="192.31,-47.54 188.81,-37.54 185.31,-47.54 192.31,-47.54" style=""/>
</g>
</g>
</svg>