<?xml version="1.0" standalone="no"?>
<svg xmlns="http://www.w3.org/2000/svg" xmlns:xlink="http://www.w3.org/1999/xlink" width="792pt" height="650pt" viewBox="0.00 0.00 792.45 649.80">
<g id="graph0" class="graph" transform="translate(4,645.7999877929688) scale(1)" data-name="inverse_flow">

<polygon fill="white" stroke="none" points="-4,4 -4,-645.8 788.45,-645.8 788.45,4 -4,4" style=""/>
<!-- start -->
<g id="node1" class="node" pointer-events="visible" data-name="start">

<polygon fill="none" stroke="black" points="345.74,-641.8 185.88,-641.8 185.88,-605.8 345.74,-605.8 345.74,-641.8" style=""/>
<text text-anchor="middle" x="265.81" y="-619.6" font-family="Helvetica,sans-Serif" font-size="14.00" style="">setInverseMatrixNoAsk</text>
</g>
<!-- build_aug -->
<g id="node2" class="node" pointer-events="visible" data-name="build_aug">

<polygon fill="none" stroke="black" points="346.8,-568.8 184.82,-568.8 184.82,-532.8 346.8,-532.8 346.8,-568.8" style=""/>
<text text-anchor="middle" x="265.81" y="-546.6" font-family="Helvetica,sans-Serif" font-size="14.00" style="">inverseFillRowsLoop (i)</text>
</g>
<!-- start&#45;&gt;build_aug -->
<g id="edge1" class="edge" data-name="start-&gt;build_aug">

<path fill="none" stroke="black" d="M265.81,-605.61C265.81,-598.03 265.81,-588.9 265.81,-580.34" style=""/>
<polygon fill="black" stroke="black" points="269.31,-580.34 265.81,-570.34 262.31,-580.34 269.31,-580.34" style=""/>
</g>
<!-- build_aug_j -->
<g id="node3" class="node" pointer-events="visible" data-name="build_aug_j">

<polygon fill="none" stroke="black" points="310.3,-480 155.32,-480 155.32,-444 310.3,-444 310.3,-480" style=""/>
<text text-anchor="middle" x="232.81" y="-457.8" font-family="Helvetica,sans-Serif" font-size="14.00" style="">inverseFillColsLoop (j)</text>
</g>
<!-- build_aug&#45;&gt;build_aug_j -->
<g id="edge2" class="edge" data-name="build_aug-&gt;build_aug_j">

<path fill="none" stroke="black" d="M255.31,-532.38C252.29,-526.89 249.17,-520.71 246.81,-514.8 243.82,-507.33 241.25,-499.01 239.17,-491.26" style=""/>
<polygon fill="black" stroke="black" points="242.57,-490.44 236.74,-481.59 235.78,-492.14 242.57,-490.44" style=""/>
</g>
<!-- kloop -->
<g id="node4" class="node" pointer-events="visible" data-name="kloop">

<polygon fill="none" stroke="black" points="449.63,-480 327.98,-480 327.98,-444 449.63,-444 449.63,-480" style=""/>
<text text-anchor="middle" x="388.81" y="-457.8" font-family="Helvetica,sans-Serif" font-size="14.00" style="">inverseKLoop (k)</text>
</g>
<!-- build_aug&#45;&gt;kloop -->
<g id="edge4" class="edge" data-name="build_aug-&gt;kloop">

<path fill="none" stroke="black" d="M290.4,-532.44C308.92,-519.37 334.53,-501.31 354.98,-486.87" style=""/>
<polygon fill="black" stroke="black" points="356.86,-489.82 363.02,-481.2 352.83,-484.11 356.86,-489.82" style=""/>
<text text-anchor="middle" x="350.28" y="-502.2" font-family="Times,serif" font-size="14.00" style="">fin i</text>
</g>
<!-- build_aug_j&#45;&gt;build_aug -->
<g id="edge3" class="edge" data-name="build_aug_j-&gt;build_aug">

<path fill="none" stroke="black" d="M239.43,-480.41C243.94,-492.28 250.01,-508.26 255.2,-521.89" style=""/>
<polygon fill="black" stroke="black" points="251.92,-523.13 258.75,-531.24 258.47,-520.65 251.92,-523.13" style=""/>
<text text-anchor="middle" x="277.62" y="-502.2" font-family="Times,serif" font-size="14.00" style="">fin j, i++</text>
</g>
<!-- find_pivot -->
<g id="node5" class="node" pointer-events="visible" data-name="find_pivot">

<polygon fill="none" stroke="black" points="314.82,-391.2 146.8,-391.2 146.8,-355.2 314.82,-355.2 314.82,-391.2" style=""/>
<text text-anchor="middle" x="230.81" y="-369" font-family="Helvetica,sans-Serif" font-size="14.00" style="">inverseFindPivotLoop (r)</text>
</g>
<!-- kloop&#45;&gt;find_pivot -->
<g id="edge5" class="edge" data-name="kloop-&gt;find_pivot">

<path fill="none" stroke="black" d="M357.21,-443.64C332.86,-430.26 298.96,-411.64 272.4,-397.05" style=""/>
<polygon fill="black" stroke="black" points="274.39,-394.15 263.94,-392.4 271.02,-400.29 274.39,-394.15" style=""/>
</g>
<!-- copy_i -->
<g id="node11" class="node" pointer-events="visible" data-name="copy_i">

<polygon fill="none" stroke="black" points="669.1,-391.2 492.52,-391.2 492.52,-355.2 669.1,-355.2 669.1,-391.2" style=""/>
<text text-anchor="middle" x="580.81" y="-369" font-family="Helvetica,sans-Serif" font-size="14.00" style="">inverseCopyRowsLoop (i)</text>
</g>
<!-- kloop&#45;&gt;copy_i -->
<g id="edge16" class="edge" data-name="kloop-&gt;copy_i">

<path fill="none" stroke="black" d="M427.2,-443.64C457.32,-430.03 499.44,-410.98 531.96,-396.28" style=""/>
<polygon fill="black" stroke="black" points="533.1,-399.61 540.77,-392.3 530.22,-393.23 533.1,-399.61" style=""/>
<text text-anchor="middle" x="515.83" y="-413.4" font-family="Times,serif" font-size="14.00" style="">fin k</text>
</g>
<!-- swap_j -->
<g id="node6" class="node" pointer-events="visible" data-name="swap_j">

<polygon fill="none" stroke="black" points="398.43,-302.4 227.18,-302.4 227.18,-266.4 398.43,-266.4 398.43,-302.4" style=""/>
<text text-anchor="middle" x="312.81" y="-280.2" font-family="Helvetica,sans-Serif" font-size="14.00" style="">inverseSwapColsLoop (j)</text>
</g>
<!-- find_pivot&#45;&gt;swap_j -->
<g id="edge6" class="edge" data-name="find_pivot-&gt;swap_j">

<path fill="none" stroke="black" d="M247.01,-355.05C258.83,-342.53 275.07,-325.34 288.46,-311.17" style=""/>
<polygon fill="black" stroke="black" points="291,-313.58 295.32,-303.91 285.91,-308.78 291,-313.58" style=""/>
<text text-anchor="middle" x="294.19" y="-324.6" font-family="Times,serif" font-size="14.00" style="">swap</text>
</g>
<!-- norm_j -->
<g id="node7" class="node" pointer-events="visible" data-name="norm_j">

<polygon fill="none" stroke="black" points="171.42,-302.4 0.19,-302.4 0.19,-266.4 171.42,-266.4 171.42,-302.4" style=""/>
<text text-anchor="middle" x="85.81" y="-280.2" font-family="Helvetica,sans-Serif" font-size="14.00" style="">inverseNormalizeLoop (j)</text>
</g>
<!-- find_pivot&#45;&gt;norm_j -->
<g id="edge7" class="edge" data-name="find_pivot-&gt;norm_j">

<path fill="none" stroke="black" d="M201.81,-354.84C179.59,-341.54 148.7,-323.05 124.39,-308.49" style=""/>
<polygon fill="black" stroke="black" points="126.43,-305.64 116.05,-303.5 122.83,-311.64 126.43,-305.64" style=""/>
<text text-anchor="middle" x="194.95" y="-324.6" font-family="Times,serif" font-size="14.00" style="">pivot ok</text>
</g>
<!-- swap_j&#45;&gt;kloop -->
<g id="edge8" class="edge" data-name="swap_j-&gt;kloop">

<path fill="none" stroke="black" d="M320.34,-302.81C333.52,-333.26 360.87,-396.44 376.72,-433.07" style=""/>
<polygon fill="black" stroke="black" points="373.46,-434.34 380.64,-442.13 379.88,-431.56 373.46,-434.34" style=""/>
<text text-anchor="middle" x="382.72" y="-369" font-family="Times,serif" font-size="14.00" style="">fin swap</text>
</g>
<!-- norm_j&#45;&gt;norm_j -->
<g id="edge9" class="edge" data-name="norm_j-&gt;norm_j">

<path fill="none" stroke="black" d="M171.72,-291.65C182.51,-290.37 189.61,-287.96 189.61,-284.4 189.61,-282.29 187.11,-280.58 182.82,-279.27" style=""/>
<polygon fill="black" stroke="black" points="183.69,-275.87 173.21,-277.43 182.38,-282.75 183.69,-275.87" style=""/>
<text text-anchor="middle" x="199.45" y="-280.2" font-family="Times,serif" font-size="14.00" style="">j++</text>
</g>
<!-- iloop -->
<g id="node8" class="node" pointer-events="visible" data-name="iloop">

<polygon fill="none" stroke="black" points="369.3,-213.6 256.32,-213.6 256.32,-177.6 369.3,-177.6 369.3,-213.6" style=""/>
<text text-anchor="middle" x="312.81" y="-191.4" font-family="Helvetica,sans-Serif" font-size="14.00" style="">inverseILoop (i)</text>
</g>
<!-- norm_j&#45;&gt;iloop -->
<g id="edge10" class="edge" data-name="norm_j-&gt;iloop">

<path fill="none" stroke="black" d="M131.47,-265.94C167.56,-252.14 218.12,-232.81 256.68,-218.06" style=""/>
<polygon fill="black" stroke="black" points="257.71,-221.41 265.8,-214.57 255.21,-214.88 257.71,-221.41" style=""/>
<text text-anchor="middle" x="231.28" y="-235.8" font-family="Times,serif" font-size="14.00" style="">fin j</text>
</g>
<!-- iloop&#45;&gt;kloop -->
<g id="edge15" class="edge" data-name="iloop-&gt;kloop">

<path fill="none" stroke="black" d="M350.65,-213.85C371.46,-225.51 395.49,-243.05 407.81,-266.4 436.06,-319.96 415.71,-393.37 400.78,-432.96" style=""/>
<polygon fill="black" stroke="black" points="397.53,-431.64 397.12,-442.23 404.04,-434.21 397.53,-431.64" style=""/>
<text text-anchor="middle" x="449.17" y="-324.6" font-family="Times,serif" font-size="14.00" style="">fin i, k++</text>
</g>
<!-- jloop -->
<g id="node9" class="node" pointer-events="visible" data-name="jloop">

<polygon fill="none" stroke="black" points="305.41,-124.8 190.21,-124.8 190.21,-88.8 305.41,-88.8 305.41,-124.8" style=""/>
<text text-anchor="middle" x="247.81" y="-102.6" font-family="Helvetica,sans-Serif" font-size="14.00" style="">inverseJLoop (j)</text>
</g>
<!-- iloop&#45;&gt;jloop -->
<g id="edge11" class="edge" data-name="iloop-&gt;jloop">

<path fill="none" stroke="black" d="M299.96,-177.45C290.77,-165.17 278.2,-148.39 267.71,-134.38" style=""/>
<polygon fill="black" stroke="black" points="270.55,-132.33 261.75,-126.42 264.94,-136.52 270.55,-132.33" style=""/>
<text text-anchor="middle" x="302.03" y="-147" font-family="Times,serif" font-size="14.00" style="">i != k</text>
</g>
<!-- jloop&#45;&gt;jloop -->
<g id="edge12" class="edge" data-name="jloop-&gt;jloop">

<path fill="none" stroke="black" d="M305.64,-114.67C316.2,-113.67 323.61,-111.05 323.61,-106.8 323.61,-104.28 321,-102.33 316.66,-100.95" style=""/>
<polygon fill="black" stroke="black" points="317.6,-97.56 307.13,-99.21 316.34,-104.45 317.6,-97.56" style=""/>
<text text-anchor="middle" x="333.45" y="-102.6" font-family="Times,serif" font-size="14.00" style="">j++</text>
</g>
<!-- force0 -->
<g id="node10" class="node" pointer-events="visible" data-name="force0">

<polygon fill="none" stroke="black" points="398.86,-36 228.75,-36 228.75,0 398.86,0 398.86,-36" style=""/>
<text text-anchor="middle" x="313.81" y="-13.8" font-family="Helvetica,sans-Serif" font-size="14.00" style="">inverseForceZeroAtPivot</text>
</g>
<!-- jloop&#45;&gt;force0 -->
<g id="edge13" class="edge" data-name="jloop-&gt;force0">

<path fill="none" stroke="black" d="M260.85,-88.65C270.28,-76.25 283.19,-59.27 293.9,-45.18" style=""/>
<polygon fill="black" stroke="black" points="296.39,-47.69 299.65,-37.62 290.81,-43.46 296.39,-47.69" style=""/>
<text text-anchor="middle" x="298.28" y="-58.2" font-family="Times,serif" font-size="14.00" style="">fin j</text>
</g>
<!-- force0&#45;&gt;iloop -->
<g id="edge14" class="edge" data-name="force0-&gt;iloop">

<path fill="none" stroke="black" d="M326.45,-36.33C335.49,-49.87 346.91,-69.55 351.81,-88.8 355.75,-104.31 355.84,-109.32 351.81,-124.8 347.83,-140.06 339.7,-155.53 331.89,-168.01" style=""/>
<polygon fill="black" stroke="black" points="329.17,-165.77 326.61,-176.05 335.02,-169.61 329.17,-165.77" style=""/>
<text text-anchor="middle" x="364.65" y="-102.6" font-family="Times,serif" font-size="14.00" style="">i++</text>
</g>
<!-- copy_j -->
<g id="node12" class="node" pointer-events="visible" data-name="copy_j">

<polygon fill="none" stroke="black" points="784.6,-302.4 615.02,-302.4 615.02,-266.4 784.6,-266.4 784.6,-302.4" style=""/>
<text text-anchor="middle" x="699.81" y="-280.2" font-family="Helvetica,sans-Serif" font-size="14.00" style="">inverseCopyColsLoop (j)</text>
</g>
<!-- copy_i&#45;&gt;copy_j -->
<g id="edge17" class="edge" data-name="copy_i-&gt;copy_j">

<path fill="none" stroke="black" d="M635.84,-354.71C646.09,-349.99 656.25,-344.2 664.81,-337.2 673.02,-330.48 680.06,-321.34 685.63,-312.61" style=""/>
<polygon fill="black" stroke="black" points="688.63,-314.41 690.71,-304.02 682.61,-310.85 688.63,-314.41" style=""/>
</g>
<!-- print -->
<g id="node13" class="node" pointer-events="visible" data-name="print">

<polygon fill="none" stroke="black" points="597.13,-302.4 454.48,-302.4 454.48,-266.4 597.13,-266.4 597.13,-302.4" style=""/>
<text text-anchor="middle" x="525.81" y="-280.2" font-family="Helvetica,sans-Serif" font-size="14.00" style="">inversePrintSuccess</text>
</g>
<!-- copy_i&#45;&gt;print -->
<g id="edge19" class="edge" data-name="copy_i-&gt;print">

<path fill="none" stroke="black" d="M569.94,-355.05C562.23,-342.89 551.73,-326.31 542.9,-312.38" style=""/>
<polygon fill="black" stroke="black" points="545.96,-310.66 537.65,-304.09 540.04,-314.41 545.96,-310.66" style=""/>
<text text-anchor="middle" x="569.28" y="-324.6" font-family="Times,serif" font-size="14.00" style="">fin i</text>
</g>
<!-- copy_j&#45;&gt;copy_i -->
<g id="edge18" class="edge" data-name="copy_j-&gt;copy_i">

<path fill="none" stroke="black" d="M639.52,-302.88C629.38,-307.53 619.48,-313.3 611.18,-320.4 603.53,-326.96 597.32,-335.95 592.56,-344.6" style=""/>
<polygon fill="black" stroke="black" points="589.48,-342.94 588.15,-353.45 595.75,-346.06 589.48,-342.94" style=""/>
<text text-anchor="middle" x="635.62" y="-324.6" font-family="Times,serif" font-size="14.00" style="">fin j, i++</text>
</g>
<!-- end -->
<g id="node14" class="node" pointer-events="visible" data-name="end">

<polygon fill="none" stroke="black" points="589.58,-213.6 462.03,-213.6 462.03,-177.6 589.58,-177.6 589.58,-213.6" style=""/>
<text text-anchor="middle" x="525.81" y="-191.4" font-family="Helvetica,sans-Serif" font-size="14.00" style="">inverseNoAskEnd</text>
</g>
<!-- print&#45;&gt;end -->
<g id="edge20" class="edge" data-name="print-&gt;end">

<path fill="none" stroke="black" d="M525.81,-266.25C525.81,-254.56 525.81,-238.79 525.81,-225.22" style=""/>
<polygon fill="black" stroke="black" points="529.31,-225.52 525.81,-215.52 522.31,-225.52 529.31,-225.52" style=""/>
</g>
</g>
</svg>