<?xml version="1.0" standalone="no"?>
<svg xmlns="http://www.w3.org/2000/svg" xmlns:xlink="http://www.w3.org/1999/xlink" width="425pt" height="441pt" viewBox="0.00 0.00 424.62 440.60">
<g id="graph0" class="graph" transform="translate(4,436.6000061035156) scale(1)" data-name="multiplication_flow">

<polygon fill="white" stroke="none" points="-4,4 -4,-436.6 420.62,-436.6 420.62,4 -4,4" style=""/>
<!-- start -->
<g id="node1" class="node" pointer-events="visible" data-name="start">

<polygon fill="none" stroke="black" points="306.62,-432.6 153.2,-432.6 153.2,-396.6 306.62,-396.6 306.62,-432.6" style=""/>
<text text-anchor="middle" x="229.91" y="-410.4" font-family="Helvetica,sans-Serif" font-size="14.00" style="">setMultiplicationMatrix</text>
</g>
<!-- alloc -->
<g id="node2" class="node" pointer-events="visible" data-name="alloc">

<polygon fill="none" stroke="black" points="297.16,-359.6 162.67,-359.6 162.67,-323.6 297.16,-323.6 297.16,-359.6" style=""/>
<text text-anchor="middle" x="229.91" y="-337.4" font-family="Helvetica,sans-Serif" font-size="14.00" style="">mallocResultMatrix</text>
</g>
<!-- start&#45;&gt;alloc -->
<g id="edge1" class="edge" data-name="start-&gt;alloc">

<path fill="none" stroke="black" d="M229.91,-396.41C229.91,-388.83 229.91,-379.7 229.91,-371.14" style=""/>
<polygon fill="black" stroke="black" points="233.41,-371.14 229.91,-361.14 226.41,-371.14 233.41,-371.14" style=""/>
</g>
<!-- loop_i -->
<g id="node3" class="node" pointer-events="visible" data-name="loop_i">

<polygon fill="none" stroke="black" points="290.45,-286.6 169.38,-286.6 169.38,-250.6 290.45,-250.6 290.45,-286.6" style=""/>
<text text-anchor="middle" x="229.91" y="-264.4" font-family="Helvetica,sans-Serif" font-size="14.00" style="">mulRowsLoop (i)</text>
</g>
<!-- alloc&#45;&gt;loop_i -->
<g id="edge2" class="edge" data-name="alloc-&gt;loop_i">

<path fill="none" stroke="black" d="M229.91,-323.41C229.91,-315.83 229.91,-306.7 229.91,-298.14" style=""/>
<polygon fill="black" stroke="black" points="233.41,-298.14 229.91,-288.14 226.41,-298.14 233.41,-298.14" style=""/>
</g>
<!-- loop_j -->
<g id="node4" class="node" pointer-events="visible" data-name="loop_j">

<polygon fill="none" stroke="black" points="253.95,-197.8 139.88,-197.8 139.88,-161.8 253.95,-161.8 253.95,-197.8" style=""/>
<text text-anchor="middle" x="196.91" y="-175.6" font-family="Helvetica,sans-Serif" font-size="14.00" style="">mulColsLoop (j)</text>
</g>
<!-- loop_i&#45;&gt;loop_j -->
<g id="edge3" class="edge" data-name="loop_i-&gt;loop_j">

<path fill="none" stroke="black" d="M219.42,-250.18C216.4,-244.69 213.28,-238.51 210.91,-232.6 207.93,-225.13 205.36,-216.81 203.27,-209.06" style=""/>
<polygon fill="black" stroke="black" points="206.68,-208.24 200.85,-199.39 199.89,-209.94 206.68,-208.24" style=""/>
</g>
<!-- print -->
<g id="node7" class="node" pointer-events="visible" data-name="print">

<polygon fill="none" stroke="black" points="381.79,-197.8 272.03,-197.8 272.03,-161.8 381.79,-161.8 381.79,-197.8" style=""/>
<text text-anchor="middle" x="326.91" y="-175.6" font-family="Helvetica,sans-Serif" font-size="14.00" style="">printLastResult</text>
</g>
<!-- loop_i&#45;&gt;print -->
<g id="edge9" class="edge" data-name="loop_i-&gt;print">

<path fill="none" stroke="black" d="M250.49,-250.31C257.06,-244.72 264.34,-238.44 270.91,-232.6 280.52,-224.07 290.88,-214.56 300.05,-206.05" style=""/>
<polygon fill="black" stroke="black" points="302.38,-208.66 307.31,-199.29 297.61,-203.54 302.38,-208.66" style=""/>
<text text-anchor="middle" x="300.38" y="-220" font-family="Times,serif" font-size="14.00" style="">fin i</text>
</g>
<!-- loop_j&#45;&gt;loop_i -->
<g id="edge8" class="edge" data-name="loop_j-&gt;loop_i">

<path fill="none" stroke="black" d="M203.53,-198.21C208.05,-210.08 214.12,-226.06 219.3,-239.69" style=""/>
<polygon fill="black" stroke="black" points="216.03,-240.93 222.86,-249.04 222.57,-238.45 216.03,-240.93" style=""/>
<text text-anchor="middle" x="241.72" y="-220" font-family="Times,serif" font-size="14.00" style="">fin j, i++</text>
</g>
<!-- loop_k -->
<g id="node5" class="node" pointer-events="visible" data-name="loop_k">

<polygon fill="none" stroke="black" points="121.74,-124.8 0.09,-124.8 0.09,-88.8 121.74,-88.8 121.74,-124.8" style=""/>
<text text-anchor="middle" x="60.91" y="-102.6" font-family="Helvetica,sans-Serif" font-size="14.00" style="">mulInnerLoop (k)</text>
</g>
<!-- loop_j&#45;&gt;loop_k -->
<g id="edge4" class="edge" data-name="loop_j-&gt;loop_k">

<path fill="none" stroke="black" d="M163.64,-161.43C145.78,-152.11 123.54,-140.5 104.33,-130.47" style=""/>
<polygon fill="black" stroke="black" points="106.14,-127.46 95.65,-125.94 102.9,-133.67 106.14,-127.46" style=""/>
</g>
<!-- loop_k&#45;&gt;loop_k -->
<g id="edge5" class="edge" data-name="loop_k-&gt;loop_k">

<path fill="none" stroke="black" d="M122.13,-113.19C132.58,-112.32 139.83,-110.19 139.83,-106.8 139.83,-104.84 137.41,-103.3 133.34,-102.19" style=""/>
<polygon fill="black" stroke="black" points="134.04,-98.75 123.62,-100.65 132.95,-105.67 134.04,-98.75" style=""/>
<text text-anchor="middle" x="151.22" y="-102.6" font-family="Times,serif" font-size="14.00" style="">k++</text>
</g>
<!-- store -->
<g id="node6" class="node" pointer-events="visible" data-name="store">

<polygon fill="none" stroke="black" points="197.18,-36 62.65,-36 62.65,0 197.18,0 197.18,-36" style=""/>
<text text-anchor="middle" x="129.91" y="-13.8" font-family="Helvetica,sans-Serif" font-size="14.00" style="">mulStoreMulResult</text>
</g>
<!-- loop_k&#45;&gt;store -->
<g id="edge6" class="edge" data-name="loop_k-&gt;store">

<path fill="none" stroke="black" d="M74.55,-88.65C84.4,-76.25 97.9,-59.27 109.11,-45.18" style=""/>
<polygon fill="black" stroke="black" points="111.65,-47.6 115.13,-37.6 106.17,-43.25 111.65,-47.6" style=""/>
<text text-anchor="middle" x="114.94" y="-58.2" font-family="Times,serif" font-size="14.00" style="">fin k</text>
</g>
<!-- store&#45;&gt;loop_j -->
<g id="edge7" class="edge" data-name="store-&gt;loop_j">

<path fill="none" stroke="black" d="M142.18,-36.36C151.41,-50.07 163.81,-69.96 171.91,-88.8 180.44,-108.62 186.86,-132.16 191.06,-150.19" style=""/>
<polygon fill="black" stroke="black" points="187.64,-150.93 193.22,-159.93 194.47,-149.41 187.64,-150.93" style=""/>
<text text-anchor="middle" x="194.75" y="-102.6" font-family="Times,serif" font-size="14.00" style="">j++</text>
</g>
<!-- end -->
<g id="node8" class="node" pointer-events="visible" data-name="end">

<polygon fill="none" stroke="black" points="416.82,-124.8 237.01,-124.8 237.01,-88.8 416.82,-88.8 416.82,-124.8" style=""/>
<text text-anchor="middle" x="326.91" y="-102.6" font-family="Helvetica,sans-Serif" font-size="14.00" style="">endSetMultiplicationMatrix</text>
</g>
<!-- print&#45;&gt;end -->
<g id="edge10" class="edge" data-name="print-&gt;end">

<path fill="none" stroke="black" d="M326.91,-161.61C326.91,-154.03 326.91,-144.9 326.91,-136.34" style=""/>
<polygon fill="black" stroke="black" points="330.41,-136.34 326.91,-126.34 323.41,-136.34 330.41,-136.34" style=""/>
</g>
</g>
</svg>